<svg height="100%" version="1.1" width="100%" xmlns="http://www.w3.org/2000/svg" preserveAspectRatio="xMidYMid meet" viewBox="0 0 600 442" xmlns:xlink="http://www.w3.org/1999/xlink"><desc>Created with Snap</desc><defs/><g id="root" contentwidth="229" contentheight="193.10000000000002">
          <rect class="background" height="2000%" width="2000%" y="-1000%" x="-1000%" style="" fill="#ffffff"/>
          <rect class="watermarklayer" height="100%" width="100%" y="0" x="0" style="" fill="none"/>
          <g class="content" id="content" transform="matrix(1,0,0,1,0.5,11.45)">
            <g class="icon">
            <svg height="71" version="1.1" width="126" xmlns="http://www.w3.org/2000/svg" x="185" y="113" preserveAspectRatio="none" transform="matrix(1,0,0,1,0,0)"><desc>Created with Snap</desc><defs/><svg xmlns="http://www.w3.org/2000/svg" viewBox="185 113 126 71"><path d="M286.786 117.49c7.753-3.38 15.942-4.807 24.772-4.13l-8.08 30.156c-4.408.812-8.622 3.142-14.02 7.455l-.844.684c-.143.116-.286.234-.43.354l-.876.731-.897.765-.457.394-.944.828-8.112 7.217c-11.926 10.459-21.25 16.639-33.712 20.839-13.494 4.548-28.41.624-45.129-10.222l-1.143-.75-1.148-.771c-1.535-1.043-9.046-7.434-10.611-8.59l23.775-18.847.465.342.462.336.913.655.45.319.89.62.874.595.858.574.843.55c.14.09.278.18.416.267l.82.517c.27.169.538.334.803.495l.789.472.772.451.757.43c.25.14.497.275.741.408l.725.387c.239.125.475.247.709.365l.693.346.677.324.66.305.325.144.637.275c.523.22 1.03.42 1.52.6l.58.206.283.096.555.177c.182.056.362.11.538.16l.522.14.255.063.496.113c.408.087.797.155 1.17.205l.438.051c1.217.121 2.232.035 3.038-.237 5.72-1.927 10.637-4.666 16.382-9.066l.966-.749.489-.386.991-.797 1.011-.83c.34-.281.685-.57 1.033-.863l1.055-.898 1.08-.934 1.105-.97 3.992-3.562 3.877-3.44 1.378-1.197c7.17-6.157 13.007-10.202 19.823-13.173Z" id="prefix-Kwr-形状结合" fill="#0DE3D2" fill-rule="nonzero"/></svg></svg><svg height="83" version="1.1" width="105" xmlns="http://www.w3.org/2000/svg" x="185" y="144" preserveAspectRatio="none" transform="matrix(1,0,0,1,0,0)"><desc>Created with Snap</desc><defs/><svg xmlns="http://www.w3.org/2000/svg" viewBox="185 144 105 83"><path d="m208.821 144.014.75.96c24.752 31.53 47.393 48.353 67.143 51.382 4.838.742 8.785.348 13.03-1.582l-8.553 31.918a57.425 57.425 0 0 1-9.025-.683c-28.973-4.444-57.709-25.944-87.011-63.559l23.666-18.436Z" id="prefix-96w-形状结合" fill="#1994E1" fill-rule="nonzero"/></svg></svg><svg height="41" version="1.1" width="61" xmlns="http://www.w3.org/2000/svg" x="185" y="144" preserveAspectRatio="none" transform="matrix(1,0,0,1,0,0)"><desc>Created with Snap</desc><defs/><svg xmlns="http://www.w3.org/2000/svg" viewBox="185 144 61 41"><path d="m222.057 144.014 23.667 18.436c-.728.538-2.743 2.208-4.844 3.945l-.631.523c-2.212 1.827-4.387 3.612-5.137 4.122l-1.148.771-1.143.75c-16.718 10.846-31.635 14.77-45.128 10.222a86.75 86.75 0 0 1-2.538-.899c11.431-8.552 23.516-20.815 36.152-36.91l.75-.96Z" id="prefix-UpC-形状结合" fill="#0B52BF" fill-rule="nonzero" transform="matrix(-1 0 0 1 430.878 0)"/></svg></svg><svg height="85" version="1.1" width="97" xmlns="http://www.w3.org/2000/svg" x="317" y="128" preserveAspectRatio="none" transform="matrix(1,0,0,1,0,0)"><desc>Created with Snap</desc><defs/><svg xmlns="http://www.w3.org/2000/svg" viewBox="317 128 97 85"><path d="M325.54 128.358c1.489.114 2.995.287 4.521.521 28.913 4.435 56.794 24.906 84.196 60.435L396.2 213.78l-6.149-9.016c-22.875-29.416-44.73-43.194-64.538-46.232-2.922-.449-5.52-.482-8.054-.013Z" id="prefix-xbN-形状结合" fill="#0DE3D2" fill-rule="nonzero"/></svg></svg><svg height="71" version="1.1" width="119" xmlns="http://www.w3.org/2000/svg" x="295" y="170" preserveAspectRatio="none" transform="matrix(1,0,0,1,0,0)"><desc>Created with Snap</desc><defs/><svg xmlns="http://www.w3.org/2000/svg" viewBox="295 170 119 71"><path d="M359.041 172.106c12.331-4.156 26.118-.843 42.026 8.74l1.213.739a133.57 133.57 0 0 1 2.45 1.551l1.236.812a155.89 155.89 0 0 1 3.763 2.576l1.271.905c.638.458 1.279.926 1.923 1.401l1.293.963-18.016 23.988-.625-.467a141.34 141.34 0 0 0-5.404-3.834l-1.144-.761c-4.916-3.226-9.247-5.522-12.93-6.9-2.223-.83-4.078-1.276-5.537-1.397-.953-.078-1.564-.013-1.937.112-6.355 2.142-11.72 5.285-18.33 10.596l-1.002.813-.508.419-1.032.863c-.174.147-.349.295-.524.445l-1.068.916-.543.471-1.105.97-8.467 7.526-.78.674c-7.17 6.157-13.007 10.202-19.824 13.172-6.417 2.797-13.134 4.257-20.266 4.293l8.55-31.91c2.203-.999 4.485-2.412 7.012-4.294l.8-.605a78.18 78.18 0 0 0 1.652-1.304l.855-.699c.288-.238.58-.482.876-.732l.897-.764.457-.394 1.063-.933 6.663-5.935 2.003-1.764 1.328-1.148c10.99-9.417 19.954-15.142 31.711-19.104Z" id="prefix-xgi-形状结合" fill="#1994E1" fill-rule="nonzero"/></svg></svg><svg height="43" version="1.1" width="56" xmlns="http://www.w3.org/2000/svg" x="358" y="170" preserveAspectRatio="none" transform="matrix(1,0,0,1,0,0)"><desc>Created with Snap</desc><defs/><svg xmlns="http://www.w3.org/2000/svg" viewBox="358 170 56 43"><path d="M359.041 172.106c12.331-4.156 26.118-.843 42.026 8.74l1.213.739a133.57 133.57 0 0 1 2.45 1.551l1.236.812a155.89 155.89 0 0 1 3.763 2.576l1.271.905c.638.458 1.279.926 1.923 1.401l1.09.812-17.813 24.14-6.149-9.017c-11.04-14.198-21.843-24.753-32.294-32.216.425-.15.852-.298 1.284-.443Z" id="prefix-9HM-形状结合" fill="#08BAB6" fill-rule="nonzero"/></svg></svg></g>
            <g id="icon_name_and_slogan_gap">
            </g>
            <g class="name_and_slogan" id="name_and_slogan_id">
              <g class="name"><g id="nameDefaultGroup"><path d="M224.3 298.1 Q227.6 298.1 230 297.3 Q232.5 296.6 234.6 295.1 L238.2 300.7 Q235.8 303.3 231.7 304.7 Q227.5 306.1 221.9 306.1 Q216.5 306.1 212.2 304.2 Q208 302.4 205.6 298.9 Q203.2 295.4 203.2 290.9 Q203.2 286.4 205.4 282.8 Q207.6 279.1 211.7 277 Q215.7 274.9 221.1 274.9 Q229.4 274.9 234.2 279.4 Q238.9 283.9 238.8 292.1 L214.7 292.1 Q215.3 295.1 217.8 296.6 Q220.4 298.1 224.3 298.1 Z M221.1 281.3 Q218.3 281.3 216.6 282.9 Q214.8 284.5 214.8 287.1 L227 287.1 Q227 284.6 225.3 283 Q223.7 281.3 221.1 281.3 M257.3 282 L243.8 282 L243.8 275.8 L267.7 275.8 L267.7 281.5 L254.8 296.8 L268.6 296.8 L268.6 305 L243.2 305 L243.2 298.3 L257.3 282 M285.6 279.1 Q287.2 277.2 289 276 Q290.8 274.9 293.1 274.9 Q295 274.9 296.9 275.6 Q298.8 276.2 299.9 277.1 L297.3 283 Q295.2 282.1 293.5 282.1 Q290.2 282.1 287.9 284.5 Q285.6 286.8 285.6 291 L285.6 305 L273.8 305 L273.8 275.8 L285.6 275.8 L285.6 279.1 M324.3 298.1 Q327.6 298.1 330 297.3 Q332.5 296.6 334.6 295.1 L338.2 300.7 Q335.8 303.3 331.7 304.7 Q327.5 306.1 321.9 306.1 Q316.5 306.1 312.2 304.2 Q308 302.4 305.6 298.9 Q303.2 295.4 303.2 290.9 Q303.2 286.4 305.4 282.8 Q307.6 279.1 311.7 277 Q315.7 274.9 321.1 274.9 Q329.4 274.9 334.2 279.4 Q338.9 283.9 338.8 292.1 L314.7 292.1 Q315.3 295.1 317.8 296.6 Q320.4 298.1 324.3 298.1 Z M321.1 281.3 Q318.3 281.3 316.6 282.9 Q314.8 284.5 314.8 287.1 L327 287.1 Q327 284.6 325.3 283 Q323.7 281.3 321.1 281.3 M365.2 300.9 Q363.9 303.4 361.2 304.8 Q358.6 306.1 354.8 306.1 Q351.5 306.1 348.8 305 Q346.2 303.8 344.7 301.7 Q343.2 299.5 343.2 296.8 Q343.2 294.4 344.8 292.4 Q346.4 290.4 349.3 288.9 Q352.2 287.5 356.2 286.7 Q360.1 285.9 364.7 285.9 Q364.7 281.8 359.4 281.8 Q357.4 281.8 354.2 282.6 Q350.9 283.4 348.5 284.5 L345.2 278.4 Q348.6 276.8 352.8 275.9 Q357 274.9 360.8 274.9 Q376.6 274.9 376.6 287.5 L376.4 293.2 Q376.4 296.2 376.9 298.3 Q377.3 300.4 378.5 302.8 L368 306.1 Q367 305.1 366.2 303.6 Q365.5 302.1 365.2 300.9 Z M358.6 298.5 Q364.7 298.5 364.7 290.6 Q359.5 291 357.2 291.9 Q354.8 292.9 354.8 295.1 Q354.8 296.7 355.8 297.6 Q356.8 298.5 358.6 298.5 M394.6 304.9 L383.2 304.9 L383.2 261.3 L394.6 261.3 L394.6 304.9 " style="" fill="#1a395d" transform="matrix(1,0,0,1,0,0)"/></g></g>
              <g class="slogan"><g id="sloganDefaultGroup"/></g>
            </g>
            <g class="border">
            </g>
          </g>
          <defs id="defs">
            <mask xmlns="http://www.w3.org/2000/svg" id="mask">
                <rect id="showAll" fill="white" x="185" y="113" width="229" height="128"/>
                <rect id="hideNameBg" fill="black" x="0" y="0" width="0" height="0" stroke-width="2" stroke="black"/>
                <rect id="hideSloganBg" fill="black" x="0" y="0" width="0" height="0" stroke-width="2" stroke="black"/>
            </mask>
          
          </defs>
        </g>
        </svg>